<?xml version="1.0" encoding="UTF-8" standalone="no"?>
<svg
   version="1.1"
   style="display:block"
   viewBox="0 0 777.72266 772.90393"
   width="388.86133"
   height="386.45197"
   preserveAspectRatio="none"
   id="svg37"
   xmlns="http://www.w3.org/2000/svg"
   xmlns:svg="http://www.w3.org/2000/svg">
  <defs
     id="defs8">
    <linearGradient
       id="Gradient1"
       gradientUnits="userSpaceOnUse"
       x1="996.01801"
       y1="648.79797"
       x2="1300.64"
       y2="555.078"
       gradientTransform="translate(-635.0184,-37.0256)">
      <stop
         class="stop0"
         offset="0"
         stop-opacity="1"
         stop-color="rgb(44,150,167)"
         id="stop1" />
      <stop
         class="stop1"
         offset="1"
         stop-opacity="1"
         stop-color="rgb(47,184,179)"
         id="stop2" />
    </linearGradient>
    <linearGradient
       id="Gradient2"
       gradientUnits="userSpaceOnUse"
       x1="856.95502"
       y1="299.71399"
       x2="990.20398"
       y2="97.688301"
       gradientTransform="translate(-635.0184,-37.0256)">
      <stop
         class="stop0"
         offset="0"
         stop-opacity="1"
         stop-color="rgb(35,101,147)"
         id="stop3" />
      <stop
         class="stop1"
         offset="1"
         stop-opacity="1"
         stop-color="rgb(29,123,160)"
         id="stop4" />
    </linearGradient>
    <linearGradient
       id="Gradient3"
       gradientUnits="userSpaceOnUse"
       x1="718.37"
       y1="668.02502"
       x2="1161.7"
       y2="163.509"
       gradientTransform="translate(-635.0184,-37.0256)">
      <stop
         class="stop0"
         offset="0"
         stop-opacity="1"
         stop-color="rgb(33,59,124)"
         id="stop5" />
      <stop
         class="stop1"
         offset="1"
         stop-opacity="1"
         stop-color="rgb(35,135,167)"
         id="stop6" />
    </linearGradient>
    <linearGradient
       id="Gradient4"
       gradientUnits="userSpaceOnUse"
       x1="910.73199"
       y1="726.31897"
       x2="1313.33"
       y2="156.12601"
       gradientTransform="translate(-635.0184,-37.0256)">
      <stop
         class="stop0"
         offset="0"
         stop-opacity="1"
         stop-color="rgb(47,143,166)"
         id="stop7" />
      <stop
         class="stop1"
         offset="1"
         stop-opacity="1"
         stop-color="rgb(45,215,183)"
         id="stop8" />
    </linearGradient>
  </defs>
  <path
     fill="#efefee"
     d="m 388.8916,0 c 108.09,1.8217 204.65,40.8113 280.32,119.0284 70.56,72.852 109.55,170.594 108.49,272.012 -1.29,103.189 -44.08,201.51 -118.71,272.785 -74.82,71.858 -175.11,111.065 -278.82,109.001 -3.2,-0.065 -5.45,-0.16 -8.62,-0.69 -89.779,0.329 -189.314,-47.102 -253.478,-108.508 C 44.132596,592.5804 1.6405962,494.9374 0.04459623,392.4074 -1.4994038,290.9814 37.102596,193.0554 107.4396,119.9654 183.5506,40.8989 279.9116,2.2007 388.8916,0 Z"
     id="path9" />
  <path
     fill="url(#Gradient4)"
     d="m 388.8916,0 c 108.09,1.8217 204.65,40.8113 280.32,119.0284 70.56,72.852 109.55,170.594 108.49,272.012 -1.29,103.189 -44.08,201.51 -118.71,272.785 -74.82,71.858 -175.11,111.065 -278.82,109.001 -3.2,-0.065 -5.45,-0.16 -8.62,-0.69 4.58,-0.345 12.02,-0.044 16.81,0.002 -0.24,-9.697 -0.21,-19.654 -0.29,-29.376 7.21,-2.081 24.03,-12.451 31.06,-16.51 114.67,-66.182 238.91,-164.082 250.1,-306.831 2.38,-30.314 1.1,-64.318 1.09,-94.775 l 0.47,-149.005 c 0,-0.609 -0.01,-1.219 -0.02,-1.828 -0.09,-6.64 0.69,-18.063 -7.87,-19.531 -10.71,-1.836 -21.79,-2.299 -32.63,-3.614 -19.13,-2.384 -38.1,-5.949 -56.79,-10.676 -52.64,-13.434 -106.21,-36.701 -148.49,-71.367 -12.22,-10.0216 -24.78,-23.5525 -36.28,-34.9283 l -0.04,-19.993 z"
     id="path10"
     style="fill:url(#Gradient4)" />
  <path
     fill="url(#Gradient3)"
     d="m 371.5516,772.1364 c -89.779,0.329 -189.314,-47.102 -253.478,-108.508 C 44.132596,592.5804 1.6405962,494.9374 0.04459623,392.4074 -1.4994038,290.9814 37.102596,193.0554 107.4396,119.9654 183.5506,40.8989 279.9116,2.2007 388.8916,0 l -0.22,13.7041 0.04,19.993 c -10.11,8.4681 -17.84,18.6762 -27.318,26.5336 -52.906,51.7317 -146.254,82.9437 -218.861,90.9197 -10.25,1.125 -20.36,0.792 -30.093,4.312 -6.071,2.195 -5.615,13.825 -5.649,18.392 l 0.165,149.235 c -0.029,32.837 -1.523,71.252 1.787,103.428 13.85,134.613 130.274,229.513 238.617,294.214 11.656,6.957 28.392,17.108 40.712,22.031 0.08,9.722 0.05,19.679 0.29,29.376 -4.79,-0.046 -12.23,-0.347 -16.81,-0.002 z"
     id="path11"
     style="fill:url(#Gradient3)" />
  <path
     fill="#2686a9"
     d="m 361.3936,60.2307 c 2.126,-4.5209 1.09,-5.2929 2.028,-8.6511 9.67,-34.6298 22.4,3.2127 25.25,-37.8755 l 0.04,19.993 c -10.11,8.4681 -17.84,18.6762 -27.318,26.5336 z"
     id="path12" />
  <path
     fill="#225b8d"
     d="m 136.1126,231.4984 c 24.911,11.005 47.382,29.873 74.725,37.583 25.811,7.279 50.021,0.177 72.126,-13.751 23.341,-14.707 37.053,-15.938 63.101,-10.48 -7.907,6.38 -75.66,58.286 -77.352,61.841 -1.905,4.004 -1.163,9.824 0.371,13.803 3.984,10.341 15.009,19.808 25.056,24.218 45.372,19.915 77.972,-18.679 116.762,-33.676 11.72,8.546 25.3,20.113 36.82,29.45 l 69.55,56.772 37.78,31.009 c 6.79,5.547 13.38,11.126 19.93,16.769 8.62,7.416 5.87,26.168 -2.13,31.635 -23.87,16.318 -45.07,-27.733 -66.46,-30.923 -1.47,-0.22 -3.92,0.556 -4.78,1.93 -6.51,11.012 2.28,17.016 8.72,22.328 8.27,6.833 14.55,11.932 21.86,17.827 9.27,8.125 9.43,23.675 -0.2,30.893 -24.83,17.845 -44.76,-25.277 -66.39,-30.028 -4.28,-0.525 -8.94,4.947 -8.1,8.83 3.45,15.937 34.45,25.107 34.95,41.423 0.15,5.375 -1.9,10.579 -5.69,14.394 -21.66,22.013 -43.67,-20.98 -61.03,-23.976 -2.02,-0.091 -5.08,1.715 -6.02,3.34 -8.96,14.965 13.46,20.128 18.89,29.751 6.87,12.187 0.94,26.882 -13.87,27.557 -11.98,0.546 -18.27,-6.319 -26.51,-13.349 4.79,-25.966 -2.5,-38.512 -26.74,-48.474 7.3,-22.045 -5.59,-45.447 -28.535,-47.386 -2.025,-0.171 -7.761,-1.671 -7.865,-2.063 -4.309,-16.297 -9.44,-29.672 -27.613,-34.45 -15.108,-4.013 -26.122,0.067 -38.3,9.877 -13.763,-30.005 -42.637,-31.141 -65.043,-9.248 -16.119,-9.457 -30.463,-21.837 -47.122,-30.418 -6.905,-3.557 -13.984,-6.768 -21.029,-10.037 z"
     id="path13" />
  <path
     fill="#efefee"
     d="m 381.9616,372.1704 c 1.11,-0.069 2.22,-0.126 3.33,-0.171 12.61,-0.501 23.56,2.996 32.9,11.725 8.85,8.178 14.03,19.579 14.36,31.625 0.19,11.549 -4.26,22.691 -12.34,30.943 -8.85,9.119 -20.04,12.819 -32.57,13.653 -11.07,0.736 -34.586,-9.918 -34.549,-22.462 l 2.151,-1.616 c 3.315,-0.119 5.094,-0.151 8.343,0.729 14.875,12.433 34.165,16.402 48.055,0.088 5.58,-6.486 8.33,-14.934 7.65,-23.461 -1.3,-15.495 -10.55,-25.154 -25.3,-28.352 -16.47,-3.573 -21.14,7.476 -35.417,10.783 -2.198,0.509 -4.916,-0.583 -6.566,-2.044 0.227,-9.423 21.803,-19.483 29.953,-21.44 z"
     id="path14" />
  <path
     fill="#efefee"
     d="m 384.5916,390.6274 c 3.88,0.494 10.23,2.503 9.73,7.176 -4.67,7.623 -32.607,9.54 -35.907,18.502 4.607,10.817 32.077,7.742 34.667,17.89 -5.37,12.285 -14.8,-1.357 -22.87,-3.569 l -0.49,-0.13 -12.607,-5.427 c -40.654,29.795 -39.731,-49.322 0.041,-18.281 4.942,-2.58 21.426,-8.481 23.816,-11.542 z"
     id="path15" />
  <path
     fill="#30c3b4"
     d="m 639.6416,232.9094 c 1.54,2.597 1.26,153.584 1.29,167.401 -26.41,8.534 -35.78,10.822 -58.38,26.276 -23.71,-18.913 -47.66,-39.267 -71.17,-58.573 -30.52,-24.693 -60.74,-49.745 -90.67,-75.151 -26.29,1.227 -27.36,1.558 -48.23,16.3 -24.043,15.68 -62.98,37.311 -85.106,5.704 30.395,-20.79 57.386,-46.188 87.286,-67.287 4.93,-3.483 20.47,-4.329 26.83,-6.184 41.34,-12.072 73.02,10.228 110.92,22.193 51.84,17.009 81.16,-6.142 127.23,-30.679 z"
     id="path16" />
  <path
     fill="url(#Gradient2)"
     d="m 136.0866,181.1704 c 12.89,-0.594 34.96,-4.22 47.714,-6.741 73.562,-14.538 150.218,-46.434 204.591,-99.063 l -0.16,148.538 c -9.1,2.166 -15.46,3.87 -24.278,6.878 -32.948,-10.71 -54.872,-14.696 -85.348,4.506 -8.596,5.417 -20.837,12.112 -30.575,14.883 -8.79,2.589 -18.076,3.015 -27.066,1.239 -19.268,-3.92 -65.742,-31.875 -84.805,-42.574 z"
     id="path17"
     style="fill:url(#Gradient2)" />
  <path
     fill="#30c3b4"
     d="m 388.3916,75.3664 c 65.46,61.097 163.45,99.257 252.15,106.131 l 0.33,27.384 c -16.71,9.432 -33.39,18.989 -50.44,27.785 -10.51,5.421 -20.44,10.449 -32.26,12.434 -11.11,1.865 -23.49,0.3 -34.31,-2.818 -64.82,-19.819 -66.25,-37.303 -135.63,-22.378 z"
     id="path18" />
  <path
     fill="url(#Gradient1)"
     d="m 639.7416,421.8954 c -12.19,96.176 -68.7,159.723 -141.88,217.799 -29.69,23.561 -74.87,53.23 -109.02,70.047 -0.12,-35.49 -1.73,-81.628 -0.33,-116.093 11.04,9.391 21.17,17.24 36.83,16.089 10.26,-0.667 19.81,-5.525 26.38,-13.435 5.21,-6.254 7.17,-11.898 9.45,-19.538 31.13,7.008 42.59,-11.112 52.2,-34.484 0.01,-0.006 8.61,-0.382 9.86,-0.539 17.13,-2.198 30.96,-15.068 34.38,-31.998 0.56,-2.94 0.7,-7.378 0.8,-10.438 32.94,-4.184 49.33,-26.791 36.85,-58.782 16.17,-10.403 25.82,-13.059 44.48,-18.628 z"
     id="path19"
     style="fill:url(#Gradient1)" />
  <path
     fill="#225b8d"
     d="m 137.9456,426.8414 c 25.211,10.959 31.647,18.607 53.485,32.476 -9.019,27.704 2.07,49.311 31.779,53.53 0.239,4.502 0.662,9.377 1.742,12.66 6.466,23.694 21.638,26.339 42.818,27.853 1.432,0.103 5.799,12.252 6.835,14.206 2.852,5.38 6.753,10.467 12.323,13.278 11.049,5.576 20.567,4.721 32.112,1.322 10.831,28.866 33.613,36.694 58.912,18.784 3.1,-2.194 7.07,-6.411 10.56,-7.302 -1.4,34.465 0.21,80.603 0.33,116.093 -14.32,-3.597 -77.861,-46.16 -91.29,-55.965 -60.11,-43.89 -119.939,-101.111 -146.414,-172.219 -6.955,-18.678 -10.071,-35.384 -13.192,-54.716 z"
     id="path20" />
  <path
     fill="#225b8d"
     d="m 290.1036,462.0934 c 2.772,-0.215 7.032,-0.459 9.506,0.182 36.687,9.511 -1.052,42.178 -13.913,54.874 -6.992,6.903 -11.769,12.542 -19.059,16.561 -24.662,3.591 -32.068,-18.739 -15.826,-33.706 11.694,-10.776 26.182,-30.063 39.292,-37.911 z"
     id="path21" />
  <path
     fill="#225b8d"
     d="m 334.4116,498.1254 c 50.67,1.041 -10.67,62.524 -26.336,68.258 -33.984,-1.355 -19.315,-30.502 -2.819,-43.694 9.608,-7.683 16.203,-20.803 29.155,-24.564 z"
     id="path22" />
  <path
     fill="#225b8d"
     d="m 231.0896,449.1464 c 35.877,0.122 18.946,35.861 -4.4,44.795 -31.985,-0.131 -22.033,-35.272 4.4,-44.795 z"
     id="path23" />
  <path
     fill="#225b8d"
     d="m 358.5566,547.0754 c 13.205,-1.836 25.825,4.902 22.085,19.816 -2.6,10.337 -11.93,18.226 -20.677,23.531 -12.746,3.427 -25.287,-3.539 -22.546,-17.785 2.16,-11.227 12.355,-19.362 21.138,-25.562 z"
     id="path24" />
</svg>
