<?xml version="1.0" encoding="UTF-8" standalone="no"?>
<svg
   version="1.1"
   style="display:block"
   viewBox="0 0 777.72266 772.90393"
   width="388.86133"
   height="386.45197"
   preserveAspectRatio="none"
   id="svg2"
   xmlns="http://www.w3.org/2000/svg"
   xmlns:svg="http://www.w3.org/2000/svg">
  <defs
     id="defs8">
    <linearGradient
       id="Gradient1"
       gradientUnits="userSpaceOnUse"
       x1="996.01801"
       y1="648.79797"
       x2="1300.64"
       y2="555.078"
       gradientTransform="translate(-635.0184,-37.0256)">
      <stop
         class="stop0"
         offset="0"
         stop-opacity="1"
         stop-color="rgb(44,150,167)"
         id="stop1" />
      <stop
         class="stop1"
         offset="1"
         stop-opacity="1"
         stop-color="rgb(47,184,179)"
         id="stop2" />
    </linearGradient>
    <linearGradient
       id="Gradient2"
       gradientUnits="userSpaceOnUse"
       x1="856.95502"
       y1="299.71399"
       x2="990.20398"
       y2="97.688301"
       gradientTransform="translate(-635.0184,-37.0256)">
      <stop
         class="stop0"
         offset="0"
         stop-opacity="1"
         stop-color="rgb(35,101,147)"
         id="stop3" />
      <stop
         class="stop1"
         offset="1"
         stop-opacity="1"
         stop-color="rgb(29,123,160)"
         id="stop4" />
    </linearGradient>
    <linearGradient
       id="Gradient3"
       gradientUnits="userSpaceOnUse"
       x1="718.37"
       y1="668.02502"
       x2="1161.7"
       y2="163.509"
       gradientTransform="translate(-635.0184,-37.0256)">
      <stop
         class="stop0"
         offset="0"
         stop-opacity="1"
         stop-color="rgb(33,59,124)"
         id="stop5" />
      <stop
         class="stop1"
         offset="1"
         stop-opacity="1"
         stop-color="rgb(35,135,167)"
         id="stop6" />
    </linearGradient>
    <linearGradient
       id="Gradient4"
       gradientUnits="userSpaceOnUse"
       x1="910.73199"
       y1="726.31897"
       x2="1313.33"
       y2="156.12601"
       gradientTransform="translate(-635.0184,-37.0256)">
      <stop
         class="stop0"
         offset="0"
         stop-opacity="1"
         stop-color="rgb(47,143,166)"
         id="stop7" />
      <stop
         class="stop1"
         offset="1"
         stop-opacity="1"
         stop-color="rgb(45,215,183)"
         id="stop8" />
    </linearGradient>
    <clipPath
       id="circleClip">
      <path
         d="m 388.8916,0 c 108.09,1.8217 204.65,40.8113 280.32,119.0284 70.56,72.852 109.55,170.594 108.49,272.012 -1.29,103.189 -44.08,201.51 -118.71,272.785 -74.82,71.858 -175.11,111.065 -278.82,109.001 -3.2,-0.065 -5.45,-0.16 -8.62,-0.69 -89.779,0.329 -189.314,-47.102 -253.478,-108.508 C 44.132596,592.5804 1.6405962,494.9374 0.04459623,392.4074 -1.4994038,290.9814 37.102596,193.0554 107.4396,119.9654 183.5506,40.8989 279.9116,2.2007 388.8916,0 Z"
         id="path1" />
    </clipPath>
  </defs>
  <g
     clip-path="url(#circleClip)"
     id="g2">
    <rect
       x="0"
       y="0"
       width="388.86133"
       height="772.90393"
       fill="url(#Gradient3)"
       id="rect1" />
    <rect
       x="388.86133"
       y="0"
       width="388.86133"
       height="772.90393"
       fill="url(#Gradient4)"
       id="rect2" />
  </g>
  <path
     d="m 388.98565,91.175029 -27.16934,26.159431 -14.72536,12.04548 -19.08076,12.66851 -25.92494,13.70692 -33.18391,13.49093 -35.46532,10.59169 -32.56173,6.64578 -31.30903,3.32289 -7.25898,1.45377 -4.77019,2.49216 -1.45179,2.90753 -0.8296,4.56897 -0.20741,185.84914 1.03701,23.05253 2.69619,22.00583 4.14799,18.69125 7.46638,22.84486 7.88119,18.0682 13.88746,24.91336 19.08077,26.79077 19.28814,22.21352 26.33973,25.5447 26.75455,22.22182 32.97653,23.87496 46.25007,29.07526 25.30275,13.29156 12.44397,-5.81506 43.1308,-25.75239 27.79153,-18.47525 22.60655,-16.61445 18.45856,-14.95299 20.53254,-18.48358 16.17717,-16.39844 17.00676,-19.72966 12.65137,-17.02979 11.82178,-18.69125 10.57737,-20.34438 7.46638,-18.0682 5.39238,-16.82213 4.5628,-20.145 2.69619,-20.96743 1.03699,-21.80646 0.20741,-186.47217 -0.8296,-6.4381 -1.6592,-3.32289 -4.14799,-2.28448 -38.16151,-4.36129 -30.69512,-6.02274 -37.95411,-11.21474 -24.68055,-9.75269 -27.16933,-13.49923 -26.75454,-17.02981 -17.82806,-14.32995 z"
     fill="none"
     stroke="#ffffff"
     stroke-width="36"
     stroke-linejoin="round"
     stroke-linecap="round"
     id="path2"
     style="stroke-width:70.27600014;stroke-dasharray:none" />
</svg>
